<?xml version="1.0" encoding="UTF-8" standalone="no"?>
<!DOCTYPE svg PUBLIC "-//W3C//DTD SVG 1.1//EN"
 "http://www.w3.org/Graphics/SVG/1.1/DTD/svg11.dtd">
<!-- Generated by graphviz version 10.0.1 (20240210.2158)
 -->
<!-- Title: tree Pages: 1 -->
<svg width="154pt" height="260pt"
 viewBox="0.00 0.00 154.04 260.00" xmlns="http://www.w3.org/2000/svg" xmlns:xlink="http://www.w3.org/1999/xlink">
<g id="graph0" class="graph" transform="scale(1 1) rotate(0) translate(4 256)">
<title>tree</title>
<polygon fill="white" stroke="none" points="-4,4 -4,-256 150.04,-256 150.04,4 -4,4"/>
<!-- 0x0 -->
<g id="node1" class="node">
<title>0x0</title>
<g id="a_node1"><a xlink:title="None">
<ellipse fill="none" stroke="black" cx="73.02" cy="-234" rx="62.54" ry="18"/>
<text text-anchor="middle" x="73.02" y="-228.57" font-family="Times New Roman,serif" font-size="14.00">➡️ &lt;lambda&gt;</text>
</a>
</g>
</g>
<!-- 0x1 -->
<g id="node2" class="node">
<title>0x1</title>
<g id="a_node2"><a xlink:title="{&#10; &#160;&#160;&#160;&#39;background.offset&#39;: 0.0,&#10; &#160;&#160;&#160;&#39;background.signal_length&#39;: 512,&#10; &#160;&#160;&#160;&#39;background.strength&#39;: 0.1&#10;}">
<ellipse fill="none" stroke="black" cx="73.02" cy="-162" rx="69.03" ry="18"/>
<text text-anchor="middle" x="73.02" y="-156.57" font-family="Times New Roman,serif" font-size="14.00">➡️ background</text>
</a>
</g>
</g>
<!-- 0x0&#45;&gt;0x1 -->
<g id="edge1" class="edge">
<title>0x0&#45;&gt;0x1</title>
<path fill="none" stroke="black" d="M73.02,-215.7C73.02,-208.41 73.02,-199.73 73.02,-191.54"/>
<polygon fill="black" stroke="black" points="76.52,-191.62 73.02,-181.62 69.52,-191.62 76.52,-191.62"/>
</g>
<!-- 0x2 -->
<g id="node3" class="node">
<title>0x2</title>
<g id="a_node3"><a xlink:title="{&#39;maybe_ramp.height&#39;: 1.0, &#39;maybe_ramp.length&#39;: 64, &#39;maybe_ramp.p_apply&#39;: 0.8}">
<ellipse fill="none" stroke="black" cx="73.02" cy="-90" rx="73.02" ry="18"/>
<text text-anchor="middle" x="73.02" y="-84.58" font-family="Times New Roman,serif" font-size="14.00">➡️ maybe_ramp</text>
</a>
</g>
</g>
<!-- 0x1&#45;&gt;0x2 -->
<g id="edge2" class="edge">
<title>0x1&#45;&gt;0x2</title>
<path fill="none" stroke="black" d="M73.02,-143.7C73.02,-136.41 73.02,-127.73 73.02,-119.54"/>
<polygon fill="black" stroke="black" points="76.52,-119.62 73.02,-109.62 69.52,-119.62 76.52,-119.62"/>
</g>
<!-- 0x3 -->
<g id="node4" class="node">
<title>0x3</title>
<g id="a_node4"><a xlink:title="{&#10; &#160;&#160;&#160;&#39;maybe_step.kernel_size&#39;: 1,&#10; &#160;&#160;&#160;&#39;maybe_step.length&#39;: 32,&#10; &#160;&#160;&#160;&#39;maybe_step.p_apply&#39;: 0.9&#10;}">
<ellipse fill="none" stroke="black" cx="73.02" cy="-18" rx="69.53" ry="18"/>
<text text-anchor="middle" x="73.02" y="-12.57" font-family="Times New Roman,serif" font-size="14.00">➡️ maybe_step</text>
</a>
</g>
</g>
<!-- 0x2&#45;&gt;0x3 -->
<g id="edge3" class="edge">
<title>0x2&#45;&gt;0x3</title>
<path fill="none" stroke="black" d="M73.02,-71.7C73.02,-64.41 73.02,-55.73 73.02,-47.54"/>
<polygon fill="black" stroke="black" points="76.52,-47.62 73.02,-37.62 69.52,-47.62 76.52,-47.62"/>
</g>
</g>
</svg>
